<svg id="Capa_1" enable-background="new 0 0 512 512" height="512" viewBox="0 0 512 512" width="512" fill="#fff" xmlns="http://www.w3.org/2000/svg"><g><g><path d="m407.52 90.68c4.142 0 7.5-3.357 7.5-7.5v-55.48c0-15.274-12.426-27.7-27.7-27.7h-262.64c-15.274 0-27.7 12.426-27.7 27.7v456.6c0 15.274 12.426 27.7 27.7 27.7h262.64c15.274 0 27.7-12.426 27.7-27.7v-366.02c0-4.143-3.358-7.5-7.5-7.5s-7.5 3.357-7.5 7.5v366.02c0 7.003-5.697 12.7-12.7 12.7h-262.64c-7.003 0-12.7-5.697-12.7-12.7v-456.6c0-7.003 5.697-12.7 12.7-12.7h262.64c7.003 0 12.7 5.697 12.7 12.7v55.48c0 4.142 3.358 7.5 7.5 7.5z"/><path d="m136.8 387.902c-4.142 0-7.5 3.357-7.5 7.5v66.668c0 9.704 7.896 17.6 17.6 17.6h218.2c9.705 0 17.6-7.896 17.6-17.6v-412.14c0-9.704-7.896-17.6-17.6-17.6h-31.23c-4.793 0-9.094 2.663-11.217 6.933l-8.183 16.347c-2.163 4.33-6.516 7.021-11.36 7.021h-94.22c-4.845 0-9.198-2.69-11.364-7.027l-8.17-16.321c-2.132-4.288-6.433-6.951-11.226-6.951h-31.23c-9.705 0-17.6 7.896-17.6 17.6v310.373c0 4.143 3.358 7.5 7.5 7.5s7.5-3.357 7.5-7.5v-310.375c0-1.434 1.167-2.6 2.6-2.6h29.711l7.499 14.98c4.719 9.449 14.214 15.319 24.78 15.319h94.22c10.566 0 20.062-5.87 24.777-15.312l7.502-14.987h29.711c1.434 0 2.6 1.166 2.6 2.6v412.14c0 1.434-1.167 2.6-2.6 2.6h-218.2c-1.434 0-2.6-1.166-2.6-2.6v-66.668c0-4.142-3.358-7.5-7.5-7.5z"/><path d="m276.203 47.325c4.142 0 7.5-3.357 7.5-7.5s-3.358-7.5-7.5-7.5h-40.406c-4.142 0-7.5 3.357-7.5 7.5s3.358 7.5 7.5 7.5z"/><path d="m236.996 155.565-9.985-54.463c-.653-3.562-3.756-6.147-7.377-6.147h-18.183c-4.142 0-7.5 3.357-7.5 7.5s3.358 7.5 7.5 7.5h11.933l9.862 53.792v31.644c0 4.143 3.358 7.5 7.5 7.5h.35c-.221.831-.351 1.7-.351 2.601 0 5.579 4.523 10.102 10.102 10.102 1.057 0 2.075-.164 3.032-.465 4.124-1.272 7.121-5.112 7.121-9.653 0-.895-.128-1.759-.346-2.585h16.808c-.221.831-.351 1.7-.351 2.601 0 5.579 4.523 10.102 10.102 10.102 1.058 0 2.078-.164 3.036-.466 4.121-1.274 7.115-5.112 7.115-9.651 0-.895-.128-1.759-.346-2.585h2.317c4.142 0 7.5-3.357 7.5-7.5s-3.358-7.5-7.5-7.5h-51.089v-17.325h63.211c3.575 0 6.653-2.523 7.354-6.029l9.091-45.458c.44-2.203-.13-4.488-1.555-6.226-1.424-1.737-3.553-2.745-5.8-2.745h-57.577c-4.142 0-7.5 3.357-7.5 7.5s3.358 7.5 7.5 7.5h48.43l-6.091 30.458h-58.313z"/><path d="m161.626 249.939v32.325c0 4.143 3.358 7.5 7.5 7.5h32.325c4.142 0 7.5-3.357 7.5-7.5v-32.325c0-4.143-3.358-7.5-7.5-7.5h-32.325c-4.142 0-7.5 3.358-7.5 7.5zm15 7.5h17.325v17.325h-17.325z"/><path d="m233.776 289.765h68.691c4.142 0 7.5-3.357 7.5-7.5s-3.358-7.5-7.5-7.5h-68.691c-4.142 0-7.5 3.357-7.5 7.5s3.358 7.5 7.5 7.5z"/><path d="m342.874 242.439h-109.098c-4.142 0-7.5 3.357-7.5 7.5s3.358 7.5 7.5 7.5h109.098c4.142 0 7.5-3.357 7.5-7.5s-3.358-7.5-7.5-7.5z"/><path d="m161.626 346.915c0 4.143 3.358 7.5 7.5 7.5h32.325c4.142 0 7.5-3.357 7.5-7.5v-32.325c0-4.143-3.358-7.5-7.5-7.5h-32.325c-4.142 0-7.5 3.357-7.5 7.5zm15-24.825h17.325v17.325h-17.325z"/><path d="m233.776 354.415h68.691c4.142 0 7.5-3.357 7.5-7.5s-3.358-7.5-7.5-7.5h-68.691c-4.142 0-7.5 3.357-7.5 7.5s3.358 7.5 7.5 7.5z"/><path d="m342.874 307.09h-109.098c-4.142 0-7.5 3.357-7.5 7.5s3.358 7.5 7.5 7.5h109.098c4.142 0 7.5-3.357 7.5-7.5s-3.358-7.5-7.5-7.5z"/><path d="m161.626 411.565c0 4.143 3.358 7.5 7.5 7.5h32.325c4.142 0 7.5-3.357 7.5-7.5v-32.325c0-4.143-3.358-7.5-7.5-7.5h-32.325c-4.142 0-7.5 3.357-7.5 7.5zm15-24.825h17.325v17.325h-17.325z"/><path d="m233.776 404.065c-4.142 0-7.5 3.357-7.5 7.5s3.358 7.5 7.5 7.5h68.691c4.142 0 7.5-3.357 7.5-7.5s-3.358-7.5-7.5-7.5z"/><path d="m350.374 379.24c0-4.143-3.358-7.5-7.5-7.5h-109.098c-4.142 0-7.5 3.357-7.5 7.5s3.358 7.5 7.5 7.5h109.098c4.142 0 7.5-3.357 7.5-7.5z"/></g></g></svg>