<svg width="512"  height="512" viewBox="0 0 512 512" fill="#fff" xmlns="http://www.w3.org/2000/svg">
<path d="M256 408C249.671 408 243.484 409.877 238.222 413.393C232.959 416.909 228.858 421.907 226.436 427.754C224.014 433.601 223.38 440.035 224.615 446.243C225.85 452.45 228.897 458.152 233.373 462.627C237.848 467.103 243.55 470.15 249.757 471.385C255.965 472.62 262.399 471.986 268.246 469.564C274.093 467.142 279.091 463.041 282.607 457.778C286.123 452.516 288 446.329 288 440C287.99 431.516 284.616 423.382 278.617 417.383C272.618 411.384 264.484 408.01 256 408V408ZM256 456C252.836 456 249.742 455.062 247.111 453.304C244.48 451.545 242.429 449.047 241.218 446.123C240.007 443.199 239.69 439.982 240.307 436.879C240.925 433.775 242.449 430.924 244.686 428.686C246.924 426.449 249.775 424.925 252.879 424.307C255.982 423.69 259.199 424.007 262.123 425.218C265.047 426.429 267.545 428.48 269.304 431.111C271.062 433.742 272 436.835 272 440C271.995 444.242 270.308 448.309 267.308 451.308C264.309 454.308 260.242 455.995 256 456V456Z" fill="#fff"/>
<path d="M240 64H272C274.122 64 276.157 63.1571 277.657 61.6569C279.157 60.1566 280 58.1217 280 56C280 53.8783 279.157 51.8434 277.657 50.3431C276.157 48.8429 274.122 48 272 48H240C237.878 48 235.843 48.8429 234.343 50.3431C232.843 51.8434 232 53.8783 232 56C232 58.1217 232.843 60.1566 234.343 61.6569C235.843 63.1571 237.878 64 240 64Z" fill="#fff"/>
<path d="M304 64H312C314.122 64 316.157 63.1571 317.657 61.6569C319.157 60.1566 320 58.1217 320 56C320 53.8783 319.157 51.8434 317.657 50.3431C316.157 48.8429 314.122 48 312 48H304C301.878 48 299.843 48.8429 298.343 50.3431C296.843 51.8434 296 53.8783 296 56C296 58.1217 296.843 60.1566 298.343 61.6569C299.843 63.1571 301.878 64 304 64Z" fill="#fff"/>
<path d="M384 234.073V50C383.99 40.9857 380.405 32.3435 374.031 25.9695C367.656 19.5954 359.014 16.0101 350 16H162C152.986 16.0101 144.344 19.5954 137.969 25.9695C131.595 32.3435 128.01 40.9857 128 50V88.741C114.567 94.8974 102.737 104.072 93.4303 115.55C84.124 127.028 77.5931 140.499 74.3464 154.914C71.0996 169.33 71.2245 184.3 74.7115 198.659C78.1985 213.019 84.9534 226.379 94.45 237.7L81.14 259.884C80.4116 261.098 80.0184 262.483 80.0006 263.899C79.9827 265.315 80.3408 266.71 81.0383 267.942C81.7359 269.174 82.7478 270.198 83.9709 270.911C85.1939 271.624 86.5843 272 88 272H128V462C128.01 471.014 131.595 479.656 137.969 486.031C144.344 492.405 152.986 495.99 162 496H350C359.014 495.99 367.656 492.405 374.031 486.031C380.405 479.656 383.99 471.014 384 462V408H408C409.416 408 410.806 407.624 412.029 406.911C413.252 406.198 414.264 405.174 414.962 403.942C415.659 402.71 416.017 401.315 415.999 399.899C415.982 398.483 415.588 397.098 414.86 395.884L401.55 373.7C410.042 363.58 416.353 351.815 420.087 339.143C423.821 326.471 424.898 313.164 423.251 300.056C421.603 286.948 417.267 274.322 410.512 262.968C403.758 251.614 394.732 241.777 384 234.073V234.073ZM144 50C144.006 45.2278 145.904 40.6527 149.278 37.2782C152.653 33.9038 157.228 32.0056 162 32H350C354.772 32.0056 359.347 33.9038 362.722 37.2782C366.096 40.6527 367.994 45.2278 368 50V88H206.345C186.699 79.4374 164.753 77.6908 144 83.038V50ZM368 104V224.741C347.062 215.129 323.365 213.37 301.238 219.786C279.11 226.203 260.03 240.366 247.482 259.688C234.934 279.01 229.757 302.201 232.896 325.025C236.034 347.849 247.279 368.782 264.577 384H144V272H168C187.505 272.01 206.549 266.075 222.595 254.987C238.642 243.898 250.928 228.183 257.817 209.936C264.706 191.688 265.87 171.774 261.154 152.848C256.439 133.922 246.068 116.883 231.423 104H368ZM102.129 256L111.204 240.876C112.106 239.373 112.489 237.616 112.295 235.874C112.101 234.132 111.34 232.502 110.13 231.235C97.4063 217.904 89.6752 200.589 88.2433 182.216C86.8113 163.843 91.7664 145.54 102.271 130.398C112.776 115.257 128.186 104.206 145.897 99.1145C163.608 94.0225 182.534 95.2013 199.476 102.452C216.418 109.702 230.338 122.579 238.882 138.907C247.427 155.235 250.072 174.012 246.372 192.065C242.671 210.118 232.851 226.34 218.572 237.989C204.292 249.638 186.428 256 168 256H102.129ZM368 462C367.994 466.772 366.096 471.347 362.722 474.722C359.347 478.096 354.772 479.994 350 480H162C157.228 479.994 152.653 478.096 149.278 474.722C145.904 471.347 144.006 466.772 144 462V400H289.655C301.746 405.289 314.803 408.013 328 408H368V462ZM384.8 376.876L393.871 392H328C309.572 392 291.708 385.638 277.428 373.989C263.149 362.34 253.329 346.118 249.628 328.065C245.928 310.012 248.573 291.235 257.118 274.907C265.662 258.579 279.582 245.702 296.524 238.452C313.467 231.201 332.392 230.023 350.103 235.115C367.815 240.206 383.224 251.257 393.729 266.398C404.234 281.54 409.189 299.843 407.757 318.216C406.325 336.589 398.594 353.904 385.87 367.235C384.66 368.503 383.9 370.133 383.707 371.875C383.514 373.617 383.898 375.374 384.8 376.876Z" fill="#fff"/>
<path d="M165 223.822C169.477 223.822 173.105 220.193 173.105 215.717C173.105 211.24 169.477 207.611 165 207.611C160.523 207.611 156.895 211.24 156.895 215.717C156.895 220.193 160.523 223.822 165 223.822Z" fill="#fff"/>
<path d="M165 134.662C150.698 134.662 139.062 146.298 139.062 160.6C139.062 164.181 141.966 167.084 145.547 167.084C149.128 167.084 152.031 164.181 152.031 160.6C152.031 153.449 157.849 147.631 165 147.631C172.151 147.631 177.969 153.449 177.969 160.6C177.969 167.751 172.151 173.568 165 173.568C161.419 173.568 158.516 176.471 158.516 180.053V196.264C158.516 199.845 161.419 202.748 165 202.748C168.581 202.748 171.484 199.845 171.484 196.264V185.717C182.659 182.83 190.938 172.663 190.938 160.6C190.938 146.298 179.302 134.662 165 134.662Z" fill="#fff"/>
<rect x="326" y="318" width="41" height="14" rx="5" fill="#fff"/>
<rect x="295" y="296" width="72" height="14" rx="5" fill="#fff"/>
</svg>
